{"title":"I.Love.You.Man.2009.DVDRIP.XviD-ZEKTORM","uid":5025155,"size":759002927,"categoryP":"video","categoryS":"movies","magnet":"?xt=urn:btih:0b619837005642d35ba1b61ed5a7be7b95e53d81&amp;dn=I.Love.You.Man.2009.DVDRIP.XviD-ZEKTORM&amp;tr=udp%3A%2F%2Ftracker.openbittorrent.com%3A80&amp;tr=udp%3A%2F%2Fopen.demonii.com%3A1337&amp;tr=udp%3A%2F%2Ftracker.coppersurfer.tk%3A6969&amp;tr=udp%3A%2F%2Fexodus.desync.com%3A6969","seeders":2,"leechers":0,"uploader":"blowley","files":5,"time":1248651972,"description":"Title                            : I Love You, Man\nYear                             : 2009\nGenre                            : Comedy | Romance\niMDB URL                         : http://www.imdb.com/title/tt1155056/\nAwards                           : 1 nomination\n\nComplete name                    : ILYM-ZEKTORM.avi\nFormat                           : AVI\nFile size                        : 701 MiB\nDuration                         : 1h 44mn\nOverall bit rate                 : 936 Kbps\nSubtitles                        : English, Spanish, French (Format: VobSub)\nSource                           : DVD NTSC\n\nVideo\nFormat                           : MPEG-4 Visual\nFormat profile                   : Streaming Video@L1\nCodec ID                         : XVID\nCodec ID/Hint                    : XviD\nDuration                         : 1h 44mn\nBit rate                         : 821 Kbps\nWidth                            : 720 pixels\nHeight                           : 416 pixels\nDisplay aspect ratio             : 16/9\nFrame rate                       : 23.976 fps\nResolution                       : 24 bits\nColorimetry                      : 4:2:0\nScan type                        : Progressive\nBits/(Pixel*Frame)               : 0.114\nStream size                      : 615 MiB (88%)\nWriting library                  : XviD\n\nAudio\nFormat                           : MPEG Audio\nFormat version                   : Version 1\nFormat profile                   : Layer 3\nCodec ID                         : 55\nCodec ID/Hint                    : MP3\nDuration                         : 1h 44mn\nBit rate mode                    : Variable\nBit rate                         : 102 Kbps\nMinimum bit rate                 : 128 Kbps\nChannel(s)                       : 2 channels\nSampling rate                    : 48.0 KHz\nResolution                       : 16 bits\nStream size                      : 76.1 MiB (11%)\nWriting library                  : LAME3.98r\nEncoding settings                : ABR\n","torrent":{"xt":"urn:btih:0b619837005642d35ba1b61ed5a7be7b95e53d81","amp;dn":"I.Love.You.Man.2009.DVDRIP.XviD-ZEKTORM","amp;tr":["udp%3A%2F%2Ftracker.openbittorrent.com%3A80","udp%3A%2F%2Fopen.demonii.com%3A1337","udp%3A%2F%2Ftracker.coppersurfer.tk%3A6969","udp%3A%2F%2Fexodus.desync.com%3A6969"],"infoHash":"0b619837005642d35ba1b61ed5a7be7b95e53d81","infoHashBuffer":{"type":"Buffer","data":[11,97,152,55,0,86,66,211,91,161,182,30,213,167,190,123,149,229,61,129]},"announce":[],"urlList":[]}}